<mxfile host="app.diagrams.net" modified="2023-11-30T08:53:17.296Z" agent="Mozilla/5.0 (Windows NT 10.0; Win64; x64) AppleWebKit/537.36 (KHTML, like Gecko) Chrome/119.0.0.0 Safari/537.36 Edg/119.0.0.0" version="22.1.5" etag="3fo4hB3_aWpxbm6U19I-" type="github">
  <diagram name="第 1 页" id="iCzHmu2789MM5vqmsooM">
    <mxGraphModel>
      <root>
        <mxCell id="0" />
        <mxCell id="1" parent="0" />
      </root>
    </mxGraphModel>
  </diagram>
</mxfile>
